#!OML:ASF E:\motion texture\Top Level 1\Subject 1\Session 1\male.ASF
:FULLY-SPECIFIED
:DEGREES
323
root -17.6808 17.9119 2.34065 287.589 -99.3819 -279.524
lowerback -2.36382 1.42795 8.00341
upperback -4.78989 1.79713 3.43636
thorax -3.51331 0.598667 -0.915762
lowerneck -15.8716 -1.13937 -3.11029
upperneck 18.2093 -2.72143 8.25661
head 8.44645 -0.721463 2.96685
rclavicle -6.5102e-015 -2.44505e-014
rhumerus -1.12644 -34.844 -41.7344
rradius 74.661
rwrist -30.619
rhand -14.6834 -30.6194
rfingers 7.12502
rthumb 11.4701 -60.2856
lclavicle -6.5102e-015 -2.44505e-014
lhumerus -6.13538 43.32 28.0451
lradius 69.2765
lwrist 31.1449
lhand -12.2984 23.2705
lfingers 7.12502
lthumb 13.7695 52.7948
rfemur 1.96158 7.08387 33.4813
rtibia 16.0026
rfoot -13.3153 -11.2345
rtoes -2.07816
lfemur -29.762 -3.33075 -2.64032
ltibia 7.46617
lfoot -8.56469 10.679
ltoes -18.5545
324
root -17.8325 17.8887 2.35318 287.346 -99.4051 -279.154
lowerback -2.39589 1.43097 8.03003
upperback -4.8474 1.7995 3.41418
thorax -3.55428 0.595209 -0.952807
lowerneck -15.8708 -1.19897 -3.17517
upperneck 18.1504 -2.81357 8.39183
head 8.43556 -0.757167 3.01176
rclavicle -5.5287e-015 1.39149e-015
rhumerus -1.03583 -34.8998 -41.3732
rradius 74.9249
rwrist -30.4413
rhand -14.7736 -30.481
rfingers 7.12502
rthumb 11.3831 -60.152
lclavicle -5.5287e-015 1.39149e-015
lhumerus -6.19874 43.6487 27.8549
lradius 69.4742
lwrist 31.5317
lhand -12.2558 23.4405
lfingers 7.12502
lthumb 13.8105 52.962
rfemur 2.17011 6.97972 33.448
rtibia 16.3782
rfoot -13.5622 -11.0579
rtoes -2.96028
lfemur -30.2347 -3.0844 -2.78062
ltibia 7.85614
lfoot -8.64719 10.6587
ltoes -18.1241
325
root -17.9849 17.8658 2.36608 286.919 -99.4383 -278.643
lowerback -2.39162 1.42674 8.05707
upperback -4.8903 1.79606 3.40445
thorax -3.6013 0.589363 -0.977908
lowerneck -15.8697 -1.26632 -3.23964
upperneck 18.0986 -2.91501 8.51742
head 8.42767 -0.798162 3.05231
rclavicle -7.57867e-016 9.93923e-015
rhumerus -1.01349 -34.8981 -40.9491
rradius 75.1571
rwrist -30.2195
rhand -14.891 -30.3414
rfingers 7.12502
rthumb 11.2699 -60.0186
lclavicle -7.57867e-016 9.93923e-015
lhumerus -6.26108 43.9448 27.7018
lradius 69.6383
lwrist 31.8698
lhand -12.2178 23.5946
lfingers 7.12502
lthumb 13.8471 53.1137
rfemur 2.40583 6.88849 33.4434
rtibia 16.7908
rfoot -13.7812 -10.9176
rtoes -3.87455
lfemur -30.7651 -2.68805 -3.02449
ltibia 8.73293
lfoot -8.5469 10.5803
ltoes -17.6434
326
root -18.139 17.8435 2.37896 286.37 -99.4931 -278.066
lowerback -2.34637 1.41894 8.09001
upperback -4.91266 1.792 3.40936
thorax -3.65035 0.58388 -0.991895
lowerneck -15.8689 -1.33964 -3.30096
upperneck 18.0543 -3.0236 8.63149
head 8.42283 -0.843395 3.08767
rclavicle 6.52262e-015 -2.127e-014
rhumerus -1.06039 -34.8493 -40.4718
rradius 75.3638
rwrist -29.943
rhand -15.0377 -30.2011
rfingers 7.12502
rthumb 11.1284 -59.886
lclavicle 6.52262e-015 -2.127e-014
lhumerus -6.31241 44.2196 27.604
lradius 69.7686
lwrist 32.139
lhand -12.1686 23.7235
lfingers 7.12502
lthumb 13.8945 53.2393
rfemur 2.68467 6.81894 33.4807
rtibia 17.2452
rfoot -13.9681 -10.8167
rtoes -4.81978
lfemur -31.2702 -2.27651 -3.2937
ltibia 9.91784
lfoot -8.33043 10.5208
ltoes -17.1739
327
root -18.2957 17.822 2.39184 285.822 -99.5786 -277.553
lowerback -2.26291 1.4162 8.13555
upperback -4.91095 1.79832 3.42797
thorax -3.69511 0.584274 -0.999397
lowerneck -15.8706 -1.42014 -3.35477
upperneck 18.0188 -3.14131 8.73001
head 8.42186 -0.893797 3.11552
rclavicle 1.50331e-015 -3.73715e-014
rhumerus -1.17505 -34.77 -39.9522
rradius 75.547
rwrist -29.5946
rhand -15.2072 -30.0545
rfingers 7.12502
rthumb 10.9649 -59.7482
lclavicle 1.50331e-015 -3.73715e-014
lhumerus -6.35944 44.4667 27.5628
lradius 69.8714
lwrist 32.3376
lhand -12.1403 23.8173
lfingers 7.12502
lthumb 13.9218 53.3312
rfemur 3.01269 6.7765 33.5646
rtibia 17.7456
rfoot -14.1221 -10.757
rtoes -5.82578
lfemur -31.6769 -1.93595 -3.52618
ltibia 11.2427
lfoot -8.08811 10.4846
ltoes -16.7507
328
root -18.4561 17.8014 2.40505 285.418 -99.691 -277.247
lowerback -2.15578 1.42618 8.19364
upperback -4.88412 1.8234 3.45521
thorax -3.72544 0.594988 -1.00542
lowerneck -15.8657 -1.50748 -3.40716
upperneck 17.9888 -3.26739 8.81879
head 8.42211 -0.949153 3.13885
rclavicle -1.47598e-014 6.34123e-014
rhumerus -1.34737 -34.675 -39.4132
rradius 75.7061
rwrist -29.1428
rhand -15.3882 -29.9067
rfingers 7.12502
rthumb 10.7903 -59.6095
lclavicle -1.47598e-014 6.34123e-014
lhumerus -6.40991 44.6774 27.5773
lradius 69.9521
lwrist 32.4673
lhand -12.1269 23.87
lfingers 7.12502
lthumb 13.9347 53.383
rfemur 3.39052 6.75605 33.6808
rtibia 18.2964
rfoot -14.2413 -10.7152
rtoes -6.8875
lfemur -31.9314 -1.70843 -3.6977
ltibia 12.5775
lfoot -7.90069 10.4122
ltoes -16.33
329
root -18.6208 17.7819 2.41896 285.32 -99.8189 -277.293
lowerback -2.0406 1.4562 8.25415
upperback -4.83649 1.87533 3.48418
thorax -3.73634 0.620335 -1.01134
lowerneck -15.8569 -1.59978 -3.4597
upperneck 17.9702 -3.40067 8.90337
head 8.42608 -1.00835 3.16007
rclavicle 1.0051e-014 -4.41302e-014
rhumerus -1.57818 -34.5596 -38.8665
rradius 75.8413
rwrist -28.5779
rhand -15.5773 -29.7496
rfingers 7.12502
rthumb 10.6079 -59.4619
lclavicle 1.0051e-014 -4.41302e-014
lhumerus -6.47916 44.8401 27.6344
lradius 70.0175
lwrist 32.5239
lhand -12.2033 23.9109
lfingers 7.12502
lthumb 13.8611 53.429
rfemur 3.79735 6.75883 33.8048
rtibia 18.9109
rfoot -14.326 -10.6768
rtoes -8.02803
lfemur -32.0124 -1.59116 -3.81102
ltibia 13.8332
lfoot -7.77162 10.2329
ltoes -15.9003
330
root -18.7902 17.7637 2.43438 285.64 -99.9469 -277.785
lowerback -1.93959 1.51101 8.31227
upperback -4.7775 1.95797 3.50521
thorax -3.72454 0.662071 -1.02416
lowerneck -15.8346 -1.69449 -3.51602
upperneck 17.9656 -3.53851 8.98904
head 8.43291 -1.07015 3.18192
rclavicle -7.06928e-015 2.90226e-014
rhumerus -1.86884 -34.4066 -38.3244
rradius 75.9477
rwrist -27.8892
rhand -15.7809 -29.5788
rfingers 7.12502
rthumb 10.4116 -59.301
lclavicle -7.06928e-015 2.90226e-014
lhumerus -6.58276 44.9493 27.7191
lradius 70.0694
lwrist 32.5023
lhand -12.2868 23.9227
lfingers 7.12502
lthumb 13.7806 53.4463
rfemur 4.21044 6.78435 33.9063
rtibia 19.5932
rfoot -14.3783 -10.6192
rtoes -9.1753
lfemur -31.9278 -1.53732 -3.90039
ltibia 14.9553
lfoot -7.58693 9.89685
ltoes -15.4609
331
root -18.9643 17.747 2.45188 286.471 -100.039 -278.788
lowerback -1.87765 1.59116 8.33874
upperback -4.71888 2.06965 3.5024
thorax -3.68845 0.720001 -1.04368
lowerneck -15.7931 -1.78788 -3.57409
upperneck 17.9834 -3.67874 9.08153
head 8.44434 -1.13295 3.20643
rclavicle 3.35449e-016 4.69132e-014
rhumerus -2.21488 -34.2076 -37.8102
rradius 76.0243
rwrist -27.0544
rhand -15.9905 -29.3918
rfingers 7.12502
rthumb 10.2093 -59.124
lclavicle 3.35449e-016 4.69132e-014
lhumerus -6.73705 44.9996 27.8116
lradius 70.111
lwrist 32.3934
lhand -12.3675 23.9125
lfingers 7.12502
lthumb 13.7028 53.4413
rfemur 4.59042 6.83221 33.929
rtibia 20.3579
rfoot -14.3732 -10.5211
rtoes -10.3885
lfemur -31.7118 -1.5183 -4.01951
ltibia 15.9134
lfoot -7.20497 9.45326
ltoes -15.0498
332
root -19.1426 17.7322 2.47175 287.825 -100.069 -280.292
lowerback -1.87101 1.68827 8.3074
upperback -4.67022 2.19771 3.46608
thorax -3.63024 0.788368 -1.06492
lowerneck -15.7414 -1.87375 -3.62862
upperneck 18.0403 -3.81507 9.17766
head 8.46703 -1.19332 3.23266
rclavicle 1.72694e-015 -1.17283e-014
rhumerus -2.61635 -33.9266 -37.3414
rradius 76.0705
rwrist -26.0827
rhand -16.2261 -29.1794
rfingers 7.12502
rthumb 9.98201 -58.9227
lclavicle 1.72694e-015 -1.17283e-014
lhumerus -6.97282 44.9799 27.8757
lradius 70.1427
lwrist 32.1884
lhand -12.4745 23.8477
lfingers 7.12502
lthumb 13.5997 53.3835
rfemur 4.91026 6.91404 33.8366
rtibia 21.2061
rfoot -14.2899 -10.3886
rtoes -11.6008
lfemur -31.4117 -1.51445 -4.21496
ltibia 16.7069
lfoot -6.56278 8.97544
ltoes -14.8061
333
root -19.3246 17.7201 2.49384 289.7 -99.9975 -282.278
lowerback -1.93344 1.79301 8.17695
upperback -4.64244 2.32902 3.38401
thorax -3.55545 0.861547 -1.07713
lowerneck -15.6759 -1.94719 -3.67395
upperneck 18.147 -3.94398 9.2788
head 8.50363 -1.24907 3.26076
rclavicle -5.04416e-015 2.5842e-015
rhumerus -3.06238 -33.5606 -36.9457
rradius 76.0875
rwrist -24.9545
rhand -16.4755 -28.9412
rfingers 7.12502
rthumb 9.74143 -58.6959
lclavicle -5.04416e-015 2.5842e-015
lhumerus -7.31759 44.8865 27.8905
lradius 70.1723
lwrist 31.8834
lhand -12.6465 23.7388
lfingers 7.12502
lthumb 13.4339 53.2856
rfemur 5.13281 7.02961 33.5789
rtibia 22.1505
rfoot -14.1075 -10.2224
rtoes -12.7666
lfemur -31.0747 -1.53139 -4.54046
ltibia 17.3447
lfoot -5.657 8.5137
ltoes -14.726
334
root -19.5095 17.7118 2.51735 292.04 -99.796 -284.679
lowerback -2.06857 1.89029 7.90988
upperback -4.6415 2.44423 3.24909
thorax -3.47107 0.930757 -1.0665
lowerneck -15.5935 -2.00703 -3.69223
upperneck 18.3033 -4.06441 9.36619
head 8.55264 -1.30041 3.28144
rclavicle 2.168e-015 3.73715e-014
rhumerus -3.55253 -33.1072 -36.6428
rradius 76.0788
rwrist -23.6743
rhand -16.7436 -28.679
rfingers 7.12502
rthumb 9.48278 -58.4456
lclavicle 2.168e-015 3.73715e-014
lhumerus -7.77271 44.746 27.8719
lradius 70.2039
lwrist 31.4465
lhand -12.7114 23.6539
lfingers 7.12502
lthumb 13.3714 53.2048
rfemur 5.22658 7.15566 33.1196
rtibia 23.2089
rfoot -13.8061 -10.0353
rtoes -13.8019
lfemur -30.746 -1.58819 -5.03578
ltibia 17.8663
lfoot -4.58878 8.09565
ltoes -14.6674
335
root -19.6964 17.7081 2.54133 294.733 -99.4707 -287.396
lowerback -2.25317 1.96792 7.50786
upperback -4.66195 2.53065 3.06881
thorax -3.38627 0.989423 -1.02642
lowerneck -15.5181 -2.05426 -3.6998
upperneck 18.5128 -4.17649 9.45319
head 8.62028 -1.34638 3.30211
rclavicle -2.24254e-015 -3.3197e-014
rhumerus -4.08093 -32.5755 -36.4351
rradius 76.0473
rwrist -22.26
rhand -17.0354 -28.3942
rfingers 7.12502
rthumb 9.2012 -58.1734
lclavicle -2.24254e-015 -3.3197e-014
lhumerus -8.33909 44.5718 27.8361
lradius 70.2399
lwrist 30.8718
lhand -12.7871 23.5656
lfingers 7.12502
lthumb 13.2985 53.1213
rfemur 5.18592 7.25751 32.4713
rtibia 24.3925
rfoot -13.3668 -9.84044
rtoes -14.6326
lfemur -30.4403 -1.69013 -5.69698
ltibia 18.3209
lfoot -3.49215 7.70552
ltoes -14.3504
